<?xml version="1.0" encoding="iso-8859-1"?>
<!-- Generator: Adobe Illustrator 18.1.1, SVG Export Plug-In . SVG Version: 6.00 Build 0)  -->
<svg version="1.1" id="Capa_1" xmlns="http://www.w3.org/2000/svg" xmlns:xlink="http://www.w3.org/1999/xlink" x="0px" y="0px"
	 viewBox="0 0 451.136 451.136" style="enable-background:new 0 0 451.136 451.136;" xml:space="preserve">
<g>
	<g>
		<path style="fill:#010002;" d="M451.132,272.307v-93.479h-44.545c-4.349-16.932-11.047-33.091-19.972-48.194L418.13,99.12
			l-66.11-66.093l-31.514,31.506c-15.095-8.925-31.263-15.623-48.202-19.98V0h-93.479v44.553
			c-16.932,4.357-33.1,11.055-48.194,19.98L99.116,33.018L33.014,99.12l31.514,31.514c-8.925,15.095-15.623,31.262-19.98,48.194
			H0.004v93.479h44.545c4.357,16.94,11.055,33.108,19.98,48.202l-31.506,31.514l66.102,66.093l31.506-31.498
			c15.103,8.925,31.263,15.623,48.194,19.972v44.545h93.479v-44.545c16.932-4.349,33.1-11.047,48.202-19.972l31.514,31.498
			l66.093-66.093l-31.498-31.514c8.925-15.111,15.623-31.271,19.972-48.202H451.132z M392.24,262.423
			c-4.292,19.517-11.957,37.993-22.768,54.909l-3.52,5.503l29.165,29.19l-43.106,43.106l-29.182-29.182l-5.503,3.528
			c-16.916,10.811-35.392,18.476-54.909,22.768l-6.381,1.406v41.236h-60.964h-0.008v-41.228l-6.381-1.406
			c-19.509-4.292-37.985-11.957-54.9-22.768l-5.503-3.52L99.108,395.13l-43.114-43.106l29.173-29.182l-3.52-5.503
			c-10.803-16.916-18.46-35.392-22.76-54.909l-1.406-6.381H16.253v-60.964h41.244l1.406-6.381c4.3-19.517,11.957-37.993,22.76-54.9
			l3.52-5.503L56.01,99.128l43.114-43.114l29.173,29.173l5.503-3.52c16.907-10.803,35.384-18.46,54.9-22.76l6.381-1.406V16.257
			h60.964v41.244l6.381,1.406c19.509,4.3,37.993,11.957,54.909,22.76l5.503,3.52l29.182-29.173l43.122,43.106l-29.182,29.173
			l3.52,5.503c10.811,16.916,18.468,35.384,22.768,54.9l1.406,6.381h41.236v60.964h-41.236L392.24,262.423z"/>
		<path style="fill:#010002;" d="M225.564,160.539c-35.855,0-65.029,29.173-65.029,65.029s29.173,65.029,65.029,65.029
			s65.029-29.173,65.029-65.029S261.419,160.539,225.564,160.539z M225.564,274.339c-26.897,0-48.771-21.874-48.771-48.771
			s21.874-48.771,48.771-48.771s48.771,21.874,48.771,48.771S252.461,274.339,225.564,274.339z"/>
	</g>
</g>
<g>
</g>
<g>
</g>
<g>
</g>
<g>
</g>
<g>
</g>
<g>
</g>
<g>
</g>
<g>
</g>
<g>
</g>
<g>
</g>
<g>
</g>
<g>
</g>
<g>
</g>
<g>
</g>
<g>
</g>
</svg>
